<svg width="117" height="40" viewBox="0 0 117 40" fill="none" xmlns="http://www.w3.org/2000/svg">
<g clip-path="url(#clip0_387_674)">
<path d="M5.74933 0L0 5.79951V39.2H29.5035C31.7489 36.9337 33.0074 35.6668 35.2528 33.4005V0H5.74933ZM11.2603 33.7935L8.18287 31.0464V16.8131L11.2854 13.7106L20.108 13.6562V14.0827L17.5072 16.7546L11.7161 16.809L11.7621 33.7894H11.2687L11.2603 33.7935ZM27.0741 20.4885L23.9716 23.5911H14.9441V23.1646L17.5449 20.4927H23.5409V11.298H11.2896V8.19541H23.9716L27.0741 11.298V20.4927V20.4885Z" fill="#F4F3F4"/>
<path d="M57.9073 19.5268L55.0807 22.3534H47.0902V30.7662H43.8747V13.9113L46.7013 11.1516H43.4858V8.325H55.0807L57.9073 11.1516V19.531V19.5268ZM54.6918 19.5268V11.1474H47.0943V21.9603L49.4651 19.5226H54.6918V19.5268Z" fill="#F4F3F4"/>
<path d="M77.1625 30.762L74.3359 27.9354V8.32081H77.5514V27.9354H85.1823V8.32081H88.3643V30.762H77.1583H77.1625Z" fill="#F4F3F4"/>
<path d="M71.5468 28.4164L69.1426 30.8206H63.5229L60.6963 27.994V8.37941H63.9117V27.994H71.5427" fill="#F4F3F4"/>
<path d="M102.309 22.1904H94.3391V30.5823H91.132V13.765L93.9502 11.0095H90.7432V8.19127H102.313V11.0095H94.3433V21.7973L96.7099 19.368H102.317V22.1862L102.309 22.1904Z" fill="#F4F3F4"/>
<path d="M116.162 22.1904H108.192V30.5823H104.985V13.765L107.803 11.0095H104.596V8.19127H116.166V11.0095H108.196V21.7973L110.563 19.368H116.17V22.1862L116.162 22.1904Z" fill="#F4F3F4"/>
</g>
<defs>
<clipPath id="clip0_387_674">
<rect width="116.162" height="39.2" fill="white"/>
</clipPath>
</defs>
</svg>
